<svg width="24" height="24" viewBox="0 0 24 24" fill="none" xmlns="http://www.w3.org/2000/svg">
<path d="M13 12.25C13.4142 12.25 13.75 12.5858 13.75 13C13.75 13.4142 13.4142 13.75 13 13.75H6C5.30964 13.75 4.75 14.3096 4.75 15V22C4.75 22.4142 4.41421 22.75 4 22.75C3.58579 22.75 3.25 22.4142 3.25 22V15C3.25 13.4812 4.48122 12.25 6 12.25H13ZM18.5234 13.666C19.0786 13.111 19.979 13.111 20.5342 13.666L22.334 15.4658C22.889 16.021 22.889 16.9214 22.334 17.4766L17.6416 22.168C17.2691 22.5404 16.7641 22.7499 16.2373 22.75H14.8838C13.9815 22.75 13.25 22.0185 13.25 21.1162V19.7627C13.2501 19.2359 13.4596 18.7309 13.832 18.3584L18.5234 13.666ZM14.8926 19.4189C14.8014 19.5102 14.7501 19.6337 14.75 19.7627V21.1162C14.75 21.19 14.81 21.25 14.8838 21.25H16.2373C16.3663 21.2499 16.4898 21.1986 16.5811 21.1074L21.2178 16.4707L19.5293 14.7822L14.8926 19.4189ZM12 1.25C14.7614 1.25 17 3.48858 17 6.25C17 9.01142 14.7614 11.25 12 11.25C9.23858 11.25 7 9.01142 7 6.25C7 3.48858 9.23858 1.25 12 1.25ZM12 2.75C10.067 2.75 8.5 4.317 8.5 6.25C8.5 8.183 10.067 9.75 12 9.75C13.933 9.75 15.5 8.183 15.5 6.25C15.5 4.317 13.933 2.75 12 2.75Z" fill="#515164"/>
</svg>
