<svg width="24" height="24" viewBox="0 0 24 24" fill="none" xmlns="http://www.w3.org/2000/svg">
<path d="M8 16.75C8.41421 16.75 8.75 16.4142 8.75 16C8.75 15.5858 8.41421 15.25 8 15.25V16V16.75ZM7.75 2C7.75 1.58579 7.41421 1.25 7 1.25C6.58579 1.25 6.25 1.58579 6.25 2H7H7.75ZM6.25 16C6.25 16.4142 6.58579 16.75 7 16.75C7.41421 16.75 7.75 16.4142 7.75 16H7H6.25ZM15.4268 17.9447L14.9746 17.3463V17.3463L15.4268 17.9447ZM18.4522 16.5984C18.7827 16.3486 18.8481 15.8783 18.5984 15.5478C18.3486 15.2173 17.8783 15.1519 17.5478 15.4016L18 16L18.4522 16.5984ZM15.0732 17.9447L15.5254 17.3463V17.3463L15.0732 17.9447ZM14.4522 16.5352C14.1217 16.2855 13.6514 16.3509 13.4016 16.6814C13.1519 17.0119 13.2173 17.4822 13.5478 17.7319L14 17.1336L14.4522 16.5352ZM6 16V16.75H8V16V15.25H6V16ZM9 22V21.25H6V22V22.75H9V22ZM6 22V21.25C4.75736 21.25 3.75 20.2426 3.75 19H3H2.25C2.25 21.0711 3.92893 22.75 6 22.75V22ZM6 16V15.25C3.92893 15.25 2.25 16.9289 2.25 19H3H3.75C3.75 17.7574 4.75736 16.75 6 16.75V16ZM6 2V2.75H17V2V1.25H6V2ZM17 2V2.75C17.6904 2.75 18.25 3.30964 18.25 4H19H19.75C19.75 2.48122 18.5188 1.25 17 1.25V2ZM6 2V1.25C3.92893 1.25 2.25 2.92893 2.25 5H3H3.75C3.75 3.75736 4.75736 2.75 6 2.75V2ZM3 5H2.25V19H3H3.75V5H3ZM19 4H18.25V9H19H19.75V4H19ZM7 2H6.25V16H7H7.75V2H7ZM15.4268 17.9447L15.879 18.543L18.4522 16.5984L18 16L17.5478 15.4016L14.9746 17.3463L15.4268 17.9447ZM15.0732 17.9447L15.5254 17.3463L14.4522 16.5352L14 17.1336L13.5478 17.7319L14.621 18.543L15.0732 17.9447ZM15.4268 17.9447L14.9746 17.3463C15.0772 17.2688 15.1795 17.25 15.25 17.25C15.3205 17.25 15.4228 17.2688 15.5254 17.3463L15.0732 17.9447L14.621 18.543C14.8212 18.6943 15.0515 18.75 15.25 18.75C15.4485 18.75 15.6788 18.6943 15.879 18.543L15.4268 17.9447ZM21 17H20.25C20.25 19.3472 18.3472 21.25 16 21.25V22V22.75C19.1756 22.75 21.75 20.1756 21.75 17H21ZM16 22V21.25C13.6528 21.25 11.75 19.3472 11.75 17H11H10.25C10.25 20.1756 12.8244 22.75 16 22.75V22ZM11 17H11.75C11.75 14.6528 13.6528 12.75 16 12.75V12V11.25C12.8244 11.25 10.25 13.8244 10.25 17H11ZM16 12V12.75C18.3472 12.75 20.25 14.6528 20.25 17H21H21.75C21.75 13.8244 19.1756 11.25 16 11.25V12Z" fill="#515164"/>
</svg>
